<?xml version="1.0" encoding="us-ascii" standalone="no"?><svg xmlns="http://www.w3.org/2000/svg" xmlns:xlink="http://www.w3.org/1999/xlink" contentStyleType="text/css" height="479px" preserveAspectRatio="none" style="width:636px;height:479px;background:#282828;" version="1.1" viewBox="0 0 636 479" width="636px" zoomAndPan="magnify"><defs/><g><rect fill="#282828" height="479" style="stroke:none;stroke-width:1.0;" width="636" x="0" y="0"/><!--class user--><g id="elem_user"><rect codeLine="4" fill="#282828" height="44" id="user" rx="2.5" ry="2.5" style="stroke:#33FF33;stroke-width:1.0;" width="59" x="263" y="12"/><ellipse cx="276" cy="26" fill="#282828" rx="9" ry="9" style="stroke:#33FF33;stroke-width:1.0;"/><path d="M272.3594,32.5 L272.3594,20.3594 L280.0156,20.3594 L280.0156,22.4844 L274.7344,22.4844 L274.7344,25.1406 L279.75,25.1406 L279.75,27.2656 L274.7344,27.2656 L274.7344,30.375 L280.0156,30.375 L280.0156,32.5 L272.3594,32.5 Z " fill="#33FF33"/><text fill="#33FF33" font-family="Verdana" font-size="14" lengthAdjust="spacing" textLength="31" x="288" y="30.8467">user</text><line style="stroke:#33FF33;stroke-width:1.0;" x1="264" x2="321" y1="40" y2="40"/><line style="stroke:#33FF33;stroke-width:1.0;" x1="264" x2="321" y1="48" y2="48"/></g><!--class merchant--><g id="elem_merchant"><rect codeLine="8" fill="#282828" height="44" id="merchant" rx="2.5" ry="2.5" style="stroke:#33FF33;stroke-width:1.0;" width="94" x="117.5" y="116"/><ellipse cx="130.5" cy="130" fill="#282828" rx="9" ry="9" style="stroke:#33FF33;stroke-width:1.0;"/><path d="M126.8594,136.5 L126.8594,124.3594 L134.5156,124.3594 L134.5156,126.4844 L129.2344,126.4844 L129.2344,129.1406 L134.25,129.1406 L134.25,131.2656 L129.2344,131.2656 L129.2344,134.375 L134.5156,134.375 L134.5156,136.5 L126.8594,136.5 Z " fill="#33FF33"/><text fill="#33FF33" font-family="Verdana" font-size="14" lengthAdjust="spacing" textLength="66" x="142.5" y="134.8467">merchant</text><line style="stroke:#33FF33;stroke-width:1.0;" x1="118.5" x2="210.5" y1="144" y2="144"/><line style="stroke:#33FF33;stroke-width:1.0;" x1="118.5" x2="210.5" y1="152" y2="152"/></g><!--class inventory--><g id="elem_inventory"><rect codeLine="12" fill="#282828" height="44" id="inventory" rx="2.5" ry="2.5" style="stroke:#33FF33;stroke-width:1.0;" width="91" x="247" y="116"/><ellipse cx="260" cy="130" fill="#282828" rx="9" ry="9" style="stroke:#33FF33;stroke-width:1.0;"/><path d="M256.3594,136.5 L256.3594,124.3594 L264.0156,124.3594 L264.0156,126.4844 L258.7344,126.4844 L258.7344,129.1406 L263.75,129.1406 L263.75,131.2656 L258.7344,131.2656 L258.7344,134.375 L264.0156,134.375 L264.0156,136.5 L256.3594,136.5 Z " fill="#33FF33"/><text fill="#33FF33" font-family="Verdana" font-size="14" lengthAdjust="spacing" textLength="63" x="272" y="134.8467">inventory</text><line style="stroke:#33FF33;stroke-width:1.0;" x1="248" x2="337" y1="144" y2="144"/><line style="stroke:#33FF33;stroke-width:1.0;" x1="248" x2="337" y1="152" y2="152"/></g><!--class customer--><g id="elem_customer"><rect codeLine="16" fill="#282828" height="44" id="customer" rx="2.5" ry="2.5" style="stroke:#33FF33;stroke-width:1.0;" width="94" x="373.5" y="116"/><ellipse cx="386.5" cy="130" fill="#282828" rx="9" ry="9" style="stroke:#33FF33;stroke-width:1.0;"/><path d="M382.8594,136.5 L382.8594,124.3594 L390.5156,124.3594 L390.5156,126.4844 L385.2344,126.4844 L385.2344,129.1406 L390.25,129.1406 L390.25,131.2656 L385.2344,131.2656 L385.2344,134.375 L390.5156,134.375 L390.5156,136.5 L382.8594,136.5 Z " fill="#33FF33"/><text fill="#33FF33" font-family="Verdana" font-size="14" lengthAdjust="spacing" textLength="66" x="398.5" y="134.8467">customer</text><line style="stroke:#33FF33;stroke-width:1.0;" x1="374.5" x2="466.5" y1="144" y2="144"/><line style="stroke:#33FF33;stroke-width:1.0;" x1="374.5" x2="466.5" y1="152" y2="152"/></g><!--class order--><g id="elem_order"><rect codeLine="20" fill="#282828" height="44" id="order" rx="2.5" ry="2.5" style="stroke:#33FF33;stroke-width:1.0;" width="65" x="12" y="220"/><ellipse cx="25" cy="234" fill="#282828" rx="9" ry="9" style="stroke:#33FF33;stroke-width:1.0;"/><path d="M21.3594,240.5 L21.3594,228.3594 L29.0156,228.3594 L29.0156,230.4844 L23.7344,230.4844 L23.7344,233.1406 L28.75,233.1406 L28.75,235.2656 L23.7344,235.2656 L23.7344,238.375 L29.0156,238.375 L29.0156,240.5 L21.3594,240.5 Z " fill="#33FF33"/><text fill="#33FF33" font-family="Verdana" font-size="14" lengthAdjust="spacing" textLength="37" x="37" y="238.8467">order</text><line style="stroke:#33FF33;stroke-width:1.0;" x1="13" x2="76" y1="248" y2="248"/><line style="stroke:#33FF33;stroke-width:1.0;" x1="13" x2="76" y1="256" y2="256"/></g><!--class order_detail--><g id="elem_order_detail"><rect codeLine="24" fill="#282828" height="44" id="order_detail" rx="2.5" ry="2.5" style="stroke:#33FF33;stroke-width:1.0;" width="109" x="112" y="220"/><ellipse cx="125" cy="234" fill="#282828" rx="9" ry="9" style="stroke:#33FF33;stroke-width:1.0;"/><path d="M121.3594,240.5 L121.3594,228.3594 L129.0156,228.3594 L129.0156,230.4844 L123.7344,230.4844 L123.7344,233.1406 L128.75,233.1406 L128.75,235.2656 L123.7344,235.2656 L123.7344,238.375 L129.0156,238.375 L129.0156,240.5 L121.3594,240.5 Z " fill="#33FF33"/><text fill="#33FF33" font-family="Verdana" font-size="14" lengthAdjust="spacing" textLength="81" x="137" y="238.8467">order_detail</text><line style="stroke:#33FF33;stroke-width:1.0;" x1="113" x2="220" y1="248" y2="248"/><line style="stroke:#33FF33;stroke-width:1.0;" x1="113" x2="220" y1="256" y2="256"/></g><!--class goods--><g id="elem_goods"><rect codeLine="28" fill="#282828" height="44" id="goods" rx="2.5" ry="2.5" style="stroke:#33FF33;stroke-width:1.0;" width="72" x="256.5" y="220"/><ellipse cx="269.5" cy="234" fill="#282828" rx="9" ry="9" style="stroke:#33FF33;stroke-width:1.0;"/><path d="M265.8594,240.5 L265.8594,228.3594 L273.5156,228.3594 L273.5156,230.4844 L268.2344,230.4844 L268.2344,233.1406 L273.25,233.1406 L273.25,235.2656 L268.2344,235.2656 L268.2344,238.375 L273.5156,238.375 L273.5156,240.5 L265.8594,240.5 Z " fill="#33FF33"/><text fill="#33FF33" font-family="Verdana" font-size="14" lengthAdjust="spacing" textLength="44" x="281.5" y="238.8467">goods</text><line style="stroke:#33FF33;stroke-width:1.0;" x1="257.5" x2="327.5" y1="248" y2="248"/><line style="stroke:#33FF33;stroke-width:1.0;" x1="257.5" x2="327.5" y1="256" y2="256"/></g><!--class purchase_detail--><g id="elem_purchase_detail"><rect codeLine="32" fill="#282828" height="44" id="purchase_detail" rx="2.5" ry="2.5" style="stroke:#33FF33;stroke-width:1.0;" width="137" x="364" y="220"/><ellipse cx="377" cy="234" fill="#282828" rx="9" ry="9" style="stroke:#33FF33;stroke-width:1.0;"/><path d="M373.3594,240.5 L373.3594,228.3594 L381.0156,228.3594 L381.0156,230.4844 L375.7344,230.4844 L375.7344,233.1406 L380.75,233.1406 L380.75,235.2656 L375.7344,235.2656 L375.7344,238.375 L381.0156,238.375 L381.0156,240.5 L373.3594,240.5 Z " fill="#33FF33"/><text fill="#33FF33" font-family="Verdana" font-size="14" lengthAdjust="spacing" textLength="109" x="389" y="238.8467">purchase_detail</text><line style="stroke:#33FF33;stroke-width:1.0;" x1="365" x2="500" y1="248" y2="248"/><line style="stroke:#33FF33;stroke-width:1.0;" x1="365" x2="500" y1="256" y2="256"/></g><!--class purchase--><g id="elem_purchase"><rect codeLine="36" fill="#282828" height="44" id="purchase" rx="2.5" ry="2.5" style="stroke:#33FF33;stroke-width:1.0;" width="93" x="536" y="220"/><ellipse cx="549" cy="234" fill="#282828" rx="9" ry="9" style="stroke:#33FF33;stroke-width:1.0;"/><path d="M545.3594,240.5 L545.3594,228.3594 L553.0156,228.3594 L553.0156,230.4844 L547.7344,230.4844 L547.7344,233.1406 L552.75,233.1406 L552.75,235.2656 L547.7344,235.2656 L547.7344,238.375 L553.0156,238.375 L553.0156,240.5 L545.3594,240.5 Z " fill="#33FF33"/><text fill="#33FF33" font-family="Verdana" font-size="14" lengthAdjust="spacing" textLength="65" x="561" y="238.8467">purchase</text><line style="stroke:#33FF33;stroke-width:1.0;" x1="537" x2="628" y1="248" y2="248"/><line style="stroke:#33FF33;stroke-width:1.0;" x1="537" x2="628" y1="256" y2="256"/></g><!--class category--><g id="elem_category"><rect codeLine="40" fill="#282828" height="44" id="category" rx="2.5" ry="2.5" style="stroke:#33FF33;stroke-width:1.0;" width="88" x="119.5" y="324"/><ellipse cx="132.5" cy="338" fill="#282828" rx="9" ry="9" style="stroke:#33FF33;stroke-width:1.0;"/><path d="M128.8594,344.5 L128.8594,332.3594 L136.5156,332.3594 L136.5156,334.4844 L131.2344,334.4844 L131.2344,337.1406 L136.25,337.1406 L136.25,339.2656 L131.2344,339.2656 L131.2344,342.375 L136.5156,342.375 L136.5156,344.5 L128.8594,344.5 Z " fill="#33FF33"/><text fill="#33FF33" font-family="Verdana" font-size="14" lengthAdjust="spacing" textLength="60" x="144.5" y="342.8467">category</text><line style="stroke:#33FF33;stroke-width:1.0;" x1="120.5" x2="206.5" y1="352" y2="352"/><line style="stroke:#33FF33;stroke-width:1.0;" x1="120.5" x2="206.5" y1="360" y2="360"/></g><!--class spesifikasi--><g id="elem_spesifikasi"><rect codeLine="44" fill="#282828" height="44" id="spesifikasi" rx="2.5" ry="2.5" style="stroke:#33FF33;stroke-width:1.0;" width="99" x="243" y="324"/><ellipse cx="256" cy="338" fill="#282828" rx="9" ry="9" style="stroke:#33FF33;stroke-width:1.0;"/><path d="M252.3594,344.5 L252.3594,332.3594 L260.0156,332.3594 L260.0156,334.4844 L254.7344,334.4844 L254.7344,337.1406 L259.75,337.1406 L259.75,339.2656 L254.7344,339.2656 L254.7344,342.375 L260.0156,342.375 L260.0156,344.5 L252.3594,344.5 Z " fill="#33FF33"/><text fill="#33FF33" font-family="Verdana" font-size="14" lengthAdjust="spacing" textLength="71" x="268" y="342.8467">spesifikasi</text><line style="stroke:#33FF33;stroke-width:1.0;" x1="244" x2="341" y1="352" y2="352"/><line style="stroke:#33FF33;stroke-width:1.0;" x1="244" x2="341" y1="360" y2="360"/></g><!--class satuan--><g id="elem_satuan"><rect codeLine="48" fill="#282828" height="44" id="satuan" rx="2.5" ry="2.5" style="stroke:#33FF33;stroke-width:1.0;" width="75" x="377" y="324"/><ellipse cx="390" cy="338" fill="#282828" rx="9" ry="9" style="stroke:#33FF33;stroke-width:1.0;"/><path d="M386.3594,344.5 L386.3594,332.3594 L394.0156,332.3594 L394.0156,334.4844 L388.7344,334.4844 L388.7344,337.1406 L393.75,337.1406 L393.75,339.2656 L388.7344,339.2656 L388.7344,342.375 L394.0156,342.375 L394.0156,344.5 L386.3594,344.5 Z " fill="#33FF33"/><text fill="#33FF33" font-family="Verdana" font-size="14" lengthAdjust="spacing" textLength="47" x="402" y="342.8467">satuan</text><line style="stroke:#33FF33;stroke-width:1.0;" x1="378" x2="451" y1="352" y2="352"/><line style="stroke:#33FF33;stroke-width:1.0;" x1="378" x2="451" y1="360" y2="360"/></g><!--class tinta--><g id="elem_tinta"><rect codeLine="52" fill="#282828" height="44" id="tinta" rx="2.5" ry="2.5" style="stroke:#33FF33;stroke-width:1.0;" width="58" x="213.5" y="428"/><ellipse cx="226.5" cy="442" fill="#282828" rx="9" ry="9" style="stroke:#33FF33;stroke-width:1.0;"/><path d="M222.8594,448.5 L222.8594,436.3594 L230.5156,436.3594 L230.5156,438.4844 L225.2344,438.4844 L225.2344,441.1406 L230.25,441.1406 L230.25,443.2656 L225.2344,443.2656 L225.2344,446.375 L230.5156,446.375 L230.5156,448.5 L222.8594,448.5 Z " fill="#33FF33"/><text fill="#33FF33" font-family="Verdana" font-size="14" lengthAdjust="spacing" textLength="30" x="238.5" y="446.8467">tinta</text><line style="stroke:#33FF33;stroke-width:1.0;" x1="214.5" x2="270.5" y1="456" y2="456"/><line style="stroke:#33FF33;stroke-width:1.0;" x1="214.5" x2="270.5" y1="464" y2="464"/></g><!--class kertas--><g id="elem_kertas"><rect codeLine="56" fill="#282828" height="44" id="kertas" rx="2.5" ry="2.5" style="stroke:#33FF33;stroke-width:1.0;" width="71" x="307" y="428"/><ellipse cx="320" cy="442" fill="#282828" rx="9" ry="9" style="stroke:#33FF33;stroke-width:1.0;"/><path d="M316.3594,448.5 L316.3594,436.3594 L324.0156,436.3594 L324.0156,438.4844 L318.7344,438.4844 L318.7344,441.1406 L323.75,441.1406 L323.75,443.2656 L318.7344,443.2656 L318.7344,446.375 L324.0156,446.375 L324.0156,448.5 L316.3594,448.5 Z " fill="#33FF33"/><text fill="#33FF33" font-family="Verdana" font-size="14" lengthAdjust="spacing" textLength="43" x="332" y="446.8467">kertas</text><line style="stroke:#33FF33;stroke-width:1.0;" x1="308" x2="377" y1="456" y2="456"/><line style="stroke:#33FF33;stroke-width:1.0;" x1="308" x2="377" y1="464" y2="464"/></g><!--link user to merchant--><g id="link_user_merchant"><path codeLine="60" d="M254.2498,65.4789 C232.2798,82.9889 227.0269,87.1721 205.0669,104.6721 " fill="none" id="user-merchant" style="stroke:#33FF33;stroke-width:1.0;"/><line style="stroke:#33FF33;stroke-width:1.0;" x1="257.3779" x2="265.98" y1="62.9859" y2="56.13"/><ellipse cx="257.3779" cy="62.9859" fill="none" rx="4" ry="4" style="stroke:#33FF33;stroke-width:1.0;"/><line style="stroke:#33FF33;stroke-width:1.0;" x1="260.3589" x2="265.345" y1="55.495" y2="61.7511"/><line style="stroke:#33FF33;stroke-width:1.0;" x1="197.2464" x2="194.7293" y1="110.9043" y2="120.5823"/><line style="stroke:#33FF33;stroke-width:1.0;" x1="197.2464" x2="187.2507" y1="110.9043" y2="111.1977"/><line style="stroke:#33FF33;stroke-width:1.0;" x1="197.2464" x2="190.99" y1="110.9043" y2="115.89"/><ellipse cx="201.9387" cy="107.165" fill="none" rx="4" ry="4" style="stroke:#33FF33;stroke-width:1.0;"/></g><!--link user to customer--><g id="link_user_customer"><path codeLine="61" d="M330.7502,65.4789 C352.7202,82.9889 357.9731,87.1721 379.9331,104.6721 " fill="none" id="user-customer" style="stroke:#33FF33;stroke-width:1.0;"/><line style="stroke:#33FF33;stroke-width:1.0;" x1="327.6221" x2="319.02" y1="62.9859" y2="56.13"/><ellipse cx="327.6221" cy="62.9859" fill="none" rx="4" ry="4" style="stroke:#33FF33;stroke-width:1.0;"/><line style="stroke:#33FF33;stroke-width:1.0;" x1="319.655" x2="324.6411" y1="61.7511" y2="55.495"/><line style="stroke:#33FF33;stroke-width:1.0;" x1="387.7536" x2="397.7493" y1="110.9043" y2="111.1977"/><line style="stroke:#33FF33;stroke-width:1.0;" x1="387.7536" x2="390.2707" y1="110.9043" y2="120.5823"/><line style="stroke:#33FF33;stroke-width:1.0;" x1="387.7536" x2="394.01" y1="110.9043" y2="115.89"/><ellipse cx="383.0613" cy="107.165" fill="none" rx="4" ry="4" style="stroke:#33FF33;stroke-width:1.0;"/></g><!--link merchant to inventory--><g id="link_merchant_inventory"><path codeLine="63" d="M227,138 C238.63,138 217.27,138 228.9,138 " fill="none" id="merchant-inventory" style="stroke:#33FF33;stroke-width:1.0;"/><line style="stroke:#33FF33;stroke-width:1.0;" x1="223" x2="212" y1="138" y2="138"/><ellipse cx="223" cy="138" fill="none" rx="4" ry="4" style="stroke:#33FF33;stroke-width:1.0;"/><line style="stroke:#33FF33;stroke-width:1.0;" x1="216" x2="216" y1="142" y2="134"/><line style="stroke:#33FF33;stroke-width:1.0;" x1="238.9" x2="246.9" y1="138" y2="132"/><line style="stroke:#33FF33;stroke-width:1.0;" x1="238.9" x2="246.9" y1="138" y2="144"/><line style="stroke:#33FF33;stroke-width:1.0;" x1="238.9" x2="246.9" y1="138" y2="138"/><ellipse cx="232.9" cy="138" fill="none" rx="4" ry="4" style="stroke:#33FF33;stroke-width:1.0;"/></g><!--link inventory to customer--><g id="link_inventory_customer"><path codeLine="64" d="M356.5,138 C368.14,138 346.78,138 358.41,138 " fill="none" id="inventory-customer" style="stroke:#33FF33;stroke-width:1.0;"/><line style="stroke:#33FF33;stroke-width:1.0;" x1="346.5" x2="338.5" y1="138" y2="144"/><line style="stroke:#33FF33;stroke-width:1.0;" x1="346.5" x2="338.5" y1="138" y2="132"/><line style="stroke:#33FF33;stroke-width:1.0;" x1="346.5" x2="338.5" y1="138" y2="138"/><ellipse cx="352.5" cy="138" fill="none" rx="4" ry="4" style="stroke:#33FF33;stroke-width:1.0;"/><line style="stroke:#33FF33;stroke-width:1.0;" x1="362.41" x2="373.41" y1="138" y2="138"/><ellipse cx="362.41" cy="138" fill="none" rx="4" ry="4" style="stroke:#33FF33;stroke-width:1.0;"/><line style="stroke:#33FF33;stroke-width:1.0;" x1="369.41" x2="369.41" y1="134" y2="142"/></g><!--link inventory to goods--><g id="link_inventory_goods"><path codeLine="66" d="M292.5,178.13 C292.5,195.64 292.5,187.39 292.5,204.89 " fill="none" id="inventory-goods" style="stroke:#33FF33;stroke-width:1.0;"/><line style="stroke:#33FF33;stroke-width:1.0;" x1="292.5" x2="286.5" y1="168.13" y2="160.13"/><line style="stroke:#33FF33;stroke-width:1.0;" x1="292.5" x2="298.5" y1="168.13" y2="160.13"/><line style="stroke:#33FF33;stroke-width:1.0;" x1="292.5" x2="292.5" y1="168.13" y2="160.13"/><ellipse cx="292.5" cy="174.13" fill="none" rx="4" ry="4" style="stroke:#33FF33;stroke-width:1.0;"/><line style="stroke:#33FF33;stroke-width:1.0;" x1="292.5" x2="292.5" y1="208.89" y2="219.89"/><ellipse cx="292.5" cy="208.89" fill="none" rx="4" ry="4" style="stroke:#33FF33;stroke-width:1.0;"/><line style="stroke:#33FF33;stroke-width:1.0;" x1="296.5" x2="288.5" y1="215.89" y2="215.89"/></g><!--link merchant to order--><g id="link_merchant_order"><path codeLine="67" d="M128.2109,169.8447 C107.6109,187.3547 103.6354,190.7329 83.0454,208.2329 " fill="none" id="merchant-order" style="stroke:#33FF33;stroke-width:1.0;"/><line style="stroke:#33FF33;stroke-width:1.0;" x1="131.2587" x2="139.64" y1="167.2541" y2="160.13"/><ellipse cx="131.2587" cy="167.2541" fill="none" rx="4" ry="4" style="stroke:#33FF33;stroke-width:1.0;"/><line style="stroke:#33FF33;stroke-width:1.0;" x1="134.0016" x2="139.1828" y1="159.6728" y2="165.7684"/><line style="stroke:#33FF33;stroke-width:1.0;" x1="75.4257" x2="73.2157" y1="214.7091" y2="224.4618"/><line style="stroke:#33FF33;stroke-width:1.0;" x1="75.4257" x2="65.4443" y1="214.7091" y2="215.3182"/><line style="stroke:#33FF33;stroke-width:1.0;" x1="75.4257" x2="69.33" y1="214.7091" y2="219.89"/><ellipse cx="79.9975" cy="210.8234" fill="none" rx="4" ry="4" style="stroke:#33FF33;stroke-width:1.0;"/></g><!--link customer to purchase--><g id="link_customer_purchase"><path codeLine="68" d="M466.7622,168.1243 C494.5622,185.6343 505.9584,192.7983 533.7484,210.2983 " fill="none" id="customer-purchase" style="stroke:#33FF33;stroke-width:1.0;"/><line style="stroke:#33FF33;stroke-width:1.0;" x1="463.3776" x2="454.07" y1="165.9925" y2="160.13"/><ellipse cx="463.3776" cy="165.9925" fill="none" rx="4" ry="4" style="stroke:#33FF33;stroke-width:1.0;"/><line style="stroke:#33FF33;stroke-width:1.0;" x1="455.3228" x2="459.5864" y1="165.6464" y2="158.8772"/><line style="stroke:#33FF33;stroke-width:1.0;" x1="542.2104" x2="552.1772" y1="215.627" y2="214.8128"/><line style="stroke:#33FF33;stroke-width:1.0;" x1="542.2104" x2="545.7828" y1="215.627" y2="224.9672"/><line style="stroke:#33FF33;stroke-width:1.0;" x1="542.2104" x2="548.98" y1="215.627" y2="219.89"/><ellipse cx="537.1332" cy="212.4298" fill="none" rx="4" ry="4" style="stroke:#33FF33;stroke-width:1.0;"/></g><!--link inventory to order--><g id="link_inventory_order"><path codeLine="69" d="M230.1666,164.3222 C189.9966,180.6622 146.65,198.38 94.5,220 C88.85,222.34 96.6699,219.0419 90.8599,221.4819 " fill="none" id="inventory-order" style="stroke:#33FF33;stroke-width:1.0;"/><line style="stroke:#33FF33;stroke-width:1.0;" x1="239.4296" x2="244.5793" y1="160.5543" y2="151.9822"/><line style="stroke:#33FF33;stroke-width:1.0;" x1="239.4296" x2="249.1007" y1="160.5543" y2="163.0978"/><line style="stroke:#33FF33;stroke-width:1.0;" x1="239.4296" x2="246.84" y1="160.5543" y2="157.54"/><ellipse cx="233.8718" cy="162.8151" fill="none" rx="4" ry="4" style="stroke:#33FF33;stroke-width:1.0;"/><line style="stroke:#33FF33;stroke-width:1.0;" x1="87.1719" x2="77.03" y1="223.0307" y2="227.29"/><ellipse cx="87.1719" cy="223.0307" fill="none" rx="4" ry="4" style="stroke:#33FF33;stroke-width:1.0;"/><line style="stroke:#33FF33;stroke-width:1.0;" x1="82.2668" x2="79.1692" y1="229.4292" y2="222.0532"/></g><!--link inventory to purchase--><g id="link_inventory_purchase"><path codeLine="70" d="M355.1108,161.021 C409.0308,179.981 467.1197,200.4232 521.5397,219.5632 " fill="none" id="inventory-purchase" style="stroke:#33FF33;stroke-width:1.0;"/><line style="stroke:#33FF33;stroke-width:1.0;" x1="345.677" x2="336.1397" y1="157.7038" y2="160.7103"/><line style="stroke:#33FF33;stroke-width:1.0;" x1="345.677" x2="340.1203" y1="157.7038" y2="149.3897"/><line style="stroke:#33FF33;stroke-width:1.0;" x1="345.677" x2="338.13" y1="157.7038" y2="155.05"/><ellipse cx="351.3373" cy="159.6941" fill="none" rx="4" ry="4" style="stroke:#33FF33;stroke-width:1.0;"/><line style="stroke:#33FF33;stroke-width:1.0;" x1="525.3131" x2="535.69" y1="220.8904" y2="224.54"/><ellipse cx="525.3131" cy="220.8904" fill="none" rx="4" ry="4" style="stroke:#33FF33;stroke-width:1.0;"/><line style="stroke:#33FF33;stroke-width:1.0;" x1="533.2437" x2="530.5894" y1="219.4394" y2="226.9863"/></g><!--link order to order_detail--><g id="link_order_order_detail"><path codeLine="72" d="M92.38,242 C103.87,242 85.36,242 96.85,242 " fill="none" id="order-order_detail" style="stroke:#33FF33;stroke-width:1.0;"/><line style="stroke:#33FF33;stroke-width:1.0;" x1="88.38" x2="77.38" y1="242" y2="242"/><ellipse cx="88.38" cy="242" fill="none" rx="4" ry="4" style="stroke:#33FF33;stroke-width:1.0;"/><line style="stroke:#33FF33;stroke-width:1.0;" x1="81.38" x2="81.38" y1="246" y2="238"/><line style="stroke:#33FF33;stroke-width:1.0;" x1="100.85" x2="111.85" y1="242" y2="242"/><ellipse cx="100.85" cy="242" fill="none" rx="4" ry="4" style="stroke:#33FF33;stroke-width:1.0;"/><line style="stroke:#33FF33;stroke-width:1.0;" x1="107.85" x2="107.85" y1="238" y2="246"/></g><!--link purchase_detail to purchase--><g id="link_purchase_detail_purchase"><path codeLine="73" d="M516.05,242 C527.61,242 509.17,242 520.73,242 " fill="none" id="purchase_detail-purchase" style="stroke:#33FF33;stroke-width:1.0;"/><line style="stroke:#33FF33;stroke-width:1.0;" x1="512.05" x2="501.05" y1="242" y2="242"/><ellipse cx="512.05" cy="242" fill="none" rx="4" ry="4" style="stroke:#33FF33;stroke-width:1.0;"/><line style="stroke:#33FF33;stroke-width:1.0;" x1="505.05" x2="505.05" y1="246" y2="238"/><line style="stroke:#33FF33;stroke-width:1.0;" x1="524.73" x2="535.73" y1="242" y2="242"/><ellipse cx="524.73" cy="242" fill="none" rx="4" ry="4" style="stroke:#33FF33;stroke-width:1.0;"/><line style="stroke:#33FF33;stroke-width:1.0;" x1="531.73" x2="531.73" y1="238" y2="246"/></g><!--link order_detail to goods--><g id="link_order_detail_goods"><path codeLine="75" d="M239.13,242 C250.84,242 229.55,242 241.26,242 " fill="none" id="order_detail-goods" style="stroke:#33FF33;stroke-width:1.0;"/><line style="stroke:#33FF33;stroke-width:1.0;" x1="229.13" x2="221.13" y1="242" y2="248"/><line style="stroke:#33FF33;stroke-width:1.0;" x1="229.13" x2="221.13" y1="242" y2="236"/><line style="stroke:#33FF33;stroke-width:1.0;" x1="229.13" x2="221.13" y1="242" y2="242"/><ellipse cx="235.13" cy="242" fill="none" rx="4" ry="4" style="stroke:#33FF33;stroke-width:1.0;"/><line style="stroke:#33FF33;stroke-width:1.0;" x1="245.26" x2="256.26" y1="242" y2="242"/><ellipse cx="245.26" cy="242" fill="none" rx="4" ry="4" style="stroke:#33FF33;stroke-width:1.0;"/><line style="stroke:#33FF33;stroke-width:1.0;" x1="252.26" x2="252.26" y1="238" y2="246"/></g><!--link goods to purchase_detail--><g id="link_goods_purchase_detail"><path codeLine="76" d="M343.59,242 C355.36,242 334.14,242 345.91,242 " fill="none" id="goods-purchase_detail" style="stroke:#33FF33;stroke-width:1.0;"/><line style="stroke:#33FF33;stroke-width:1.0;" x1="339.59" x2="328.59" y1="242" y2="242"/><ellipse cx="339.59" cy="242" fill="none" rx="4" ry="4" style="stroke:#33FF33;stroke-width:1.0;"/><line style="stroke:#33FF33;stroke-width:1.0;" x1="332.59" x2="332.59" y1="246" y2="238"/><line style="stroke:#33FF33;stroke-width:1.0;" x1="355.91" x2="363.91" y1="242" y2="236"/><line style="stroke:#33FF33;stroke-width:1.0;" x1="355.91" x2="363.91" y1="242" y2="248"/><line style="stroke:#33FF33;stroke-width:1.0;" x1="355.91" x2="363.91" y1="242" y2="242"/><ellipse cx="349.91" cy="242" fill="none" rx="4" ry="4" style="stroke:#33FF33;stroke-width:1.0;"/></g><!--link goods to category--><g id="link_goods_category"><path codeLine="78" d="M251.6517,275.2958 C229.5117,292.8058 224.0858,297.0859 201.9558,314.5859 " fill="none" id="goods-category" style="stroke:#33FF33;stroke-width:1.0;"/><line style="stroke:#33FF33;stroke-width:1.0;" x1="259.4952" x2="262.0481" y1="269.0926" y2="259.4239"/><line style="stroke:#33FF33;stroke-width:1.0;" x1="259.4952" x2="269.4919" y1="269.0926" y2="268.8361"/><line style="stroke:#33FF33;stroke-width:1.0;" x1="259.4952" x2="265.77" y1="269.0926" y2="264.13"/><ellipse cx="254.7891" cy="272.8145" fill="none" rx="4" ry="4" style="stroke:#33FF33;stroke-width:1.0;"/><line style="stroke:#33FF33;stroke-width:1.0;" x1="198.8182" x2="190.19" y1="317.067" y2="323.89"/><ellipse cx="198.8182" cy="317.067" fill="none" rx="4" ry="4" style="stroke:#33FF33;stroke-width:1.0;"/><line style="stroke:#33FF33;stroke-width:1.0;" x1="195.8086" x2="190.8464" y1="324.5464" y2="318.2714"/></g><!--link goods to spesifikasi--><g id="link_goods_spesifikasi"><path codeLine="79" d="M292.5,282.13 C292.5,299.64 292.5,291.39 292.5,308.89 " fill="none" id="goods-spesifikasi" style="stroke:#33FF33;stroke-width:1.0;"/><line style="stroke:#33FF33;stroke-width:1.0;" x1="292.5" x2="286.5" y1="272.13" y2="264.13"/><line style="stroke:#33FF33;stroke-width:1.0;" x1="292.5" x2="298.5" y1="272.13" y2="264.13"/><line style="stroke:#33FF33;stroke-width:1.0;" x1="292.5" x2="292.5" y1="272.13" y2="264.13"/><ellipse cx="292.5" cy="278.13" fill="none" rx="4" ry="4" style="stroke:#33FF33;stroke-width:1.0;"/><line style="stroke:#33FF33;stroke-width:1.0;" x1="292.5" x2="292.5" y1="312.89" y2="323.89"/><ellipse cx="292.5" cy="312.89" fill="none" rx="4" ry="4" style="stroke:#33FF33;stroke-width:1.0;"/><line style="stroke:#33FF33;stroke-width:1.0;" x1="296.5" x2="288.5" y1="319.89" y2="319.89"/></g><!--link goods to satuan--><g id="link_goods_satuan"><path codeLine="80" d="M331.5885,275.6767 C352.5285,293.1867 356.8125,296.7683 377.7425,314.2683 " fill="none" id="goods-satuan" style="stroke:#33FF33;stroke-width:1.0;"/><line style="stroke:#33FF33;stroke-width:1.0;" x1="323.9171" x2="313.9311" y1="269.2618" y2="268.7328"/><line style="stroke:#33FF33;stroke-width:1.0;" x1="323.9171" x2="321.6289" y1="269.2618" y2="259.5272"/><line style="stroke:#33FF33;stroke-width:1.0;" x1="323.9171" x2="317.78" y1="269.2618" y2="264.13"/><ellipse cx="328.5199" cy="273.1107" fill="none" rx="4" ry="4" style="stroke:#33FF33;stroke-width:1.0;"/><line style="stroke:#33FF33;stroke-width:1.0;" x1="380.8111" x2="389.25" y1="316.8341" y2="323.89"/><ellipse cx="380.8111" cy="316.8341" fill="none" rx="4" ry="4" style="stroke:#33FF33;stroke-width:1.0;"/><line style="stroke:#33FF33;stroke-width:1.0;" x1="388.7471" x2="383.6155" y1="318.2555" y2="324.3929"/></g><!--link spesifikasi to tinta--><g id="link_spesifikasi_tinta"><path codeLine="82" d="M275.5397,381.5998 C266.9597,399.1098 269.3365,394.2243 260.7665,411.7243 " fill="none" id="spesifikasi-tinta" style="stroke:#33FF33;stroke-width:1.0;"/><line style="stroke:#33FF33;stroke-width:1.0;" x1="277.2998" x2="282.14" y1="378.0079" y2="368.13"/><ellipse cx="277.2998" cy="378.0079" fill="none" rx="4" ry="4" style="stroke:#33FF33;stroke-width:1.0;"/><line style="stroke:#33FF33;stroke-width:1.0;" x1="276.788" x2="283.9719" y1="369.9619" y2="373.482"/><line style="stroke:#33FF33;stroke-width:1.0;" x1="256.3685" x2="258.2386" y1="420.7053" y2="430.5288"/><line style="stroke:#33FF33;stroke-width:1.0;" x1="256.3685" x2="247.4614" y1="420.7053" y2="425.2512"/><line style="stroke:#33FF33;stroke-width:1.0;" x1="256.3685" x2="252.85" y1="420.7053" y2="427.89"/><ellipse cx="259.0073" cy="415.3167" fill="none" rx="4" ry="4" style="stroke:#33FF33;stroke-width:1.0;"/></g><!--link spesifikasi to kertas--><g id="link_spesifikasi_kertas"><path codeLine="83" d="M309.4603,381.5998 C318.0403,399.1098 315.6635,394.2243 324.2335,411.7243 " fill="none" id="spesifikasi-kertas" style="stroke:#33FF33;stroke-width:1.0;"/><line style="stroke:#33FF33;stroke-width:1.0;" x1="307.7002" x2="302.86" y1="378.0079" y2="368.13"/><ellipse cx="307.7002" cy="378.0079" fill="none" rx="4" ry="4" style="stroke:#33FF33;stroke-width:1.0;"/><line style="stroke:#33FF33;stroke-width:1.0;" x1="301.0281" x2="308.212" y1="373.482" y2="369.9619"/><line style="stroke:#33FF33;stroke-width:1.0;" x1="328.6315" x2="337.5386" y1="420.7053" y2="425.2512"/><line style="stroke:#33FF33;stroke-width:1.0;" x1="328.6315" x2="326.7614" y1="420.7053" y2="430.5288"/><line style="stroke:#33FF33;stroke-width:1.0;" x1="328.6315" x2="332.15" y1="420.7053" y2="427.89"/><ellipse cx="325.9927" cy="415.3167" fill="none" rx="4" ry="4" style="stroke:#33FF33;stroke-width:1.0;"/></g><!--SRC=[TLBB3i8W4BplL-39Kx_9hEtQ4YsOPMjYglykGg4Fsfx8pEmopFGa7VMaQfQgPI83PtMQ8Uoln01aHCjR3OvOZG3VZFJ4TOT6FAhyjs2qUVcJvNT9rOCJsuTL6yPoSmXV6XBKZv9jhMrS2J-7lpL7XtD9i6CGXTfTw-v9Jj_q7PtU8L46D2KksWYMy9rOS6aynFknLMN77EmAJC41pEb-FVMWctZ1HyrZQm7hjekAenMU2Zb2RZHT6iA7t5c2KthbdZXGm7a0Oiigh8hEqjJK5UHgl28yxl-sJQ40iVWi6TSxCZjTCHujcFobqjVeel0D4Se6MFuHKpIXxpqYDWxm0m00]--></g></svg>